<?xml version="1.0" encoding="utf-8"?>
<!-- Generator: Adobe Illustrator 23.1.0, SVG Export Plug-In . SVG Version: 6.00 Build 0)  -->
<svg version="1.1" id="图层_1" xmlns="http://www.w3.org/2000/svg" xmlns:xlink="http://www.w3.org/1999/xlink" x="0px" y="0px"
	 viewBox="0 0 141.7 85" style="enable-background:new 0 0 141.7 85;" xml:space="preserve">
<style type="text/css">
	.st0{fill:#D71718;}
	.st1{fill:#D92B1F;}
	.st2{fill:#FFFFFF;}
</style>
<g>
	<path class="st0" d="M83,60C9.3,60,9.3,60,9.3,60c-8.5,0-8.4-0.7-8.5-2.7c-0.3-12.6,4.3-23.7,13-32.9c3.8-4,8.2-7.2,13.3-9.5
		c2.9-1.4,5.7-2.4,8.8-2.5c1.2,0,2.2,0.4,1.7,1.6c-0.1,0.4-0.1,0.8-0.4,1.2c-0.7,1.6-2,2.4-3.6,3.4c-3.7,2.1-3.1,2.9-5.3,5.5
		c-1.1,1.3-1.4,2.9-2.4,4.2c-0.9,1.3-1.7,2.5-2.6,3.9c-2,3.3-5.4,5.5-9.3,6.4c-3.5,0.8-5.5,3-6.7,6.2C7,45.5,7,46.4,7.4,47.4
		c1.1,2.5,3.2,3.9,5.6,4.5c1.7,0.4,2.2,0.4,4.8,0.4c5.8-0.2,9.6-0.3,13.7-2.7c4.3-2.5,8.3-5.5,12.2-8.5c1.9-1.5,3.7-1.4,5.8-0.9
		C58.2,42.6,66,47,74.1,50.4c3.5,1.5,6.8,3.3,10.2,5.4C91,60,87.5,60,83,60z"/>
	<path class="st1" d="M89.1,26.9c1.9,2.3,3.5,4.9,4.8,7.6c0.4,0.7,1,1.5-0.5,1.8c-1.7,1-4.2-1.8-5.7-2.5c-3.1-1.3-4.4-1.8-7.6-3
		c-2.9-1.1-5.5-2.7-7.9-4.4c-1-0.7-2.2-1.1-3.4-1.6c-1.5-0.5-4.5-2.6-5.7-3c-4.3-1.4,1.1-5.6,1.3-9.3c0.1-2,3.1-1.4,4.5-0.7
		c4,1.8,8,3.7,11.5,6.5C83.7,20.9,86.4,23.9,89.1,26.9z"/>
	<path class="st2" d="M47.7,6.7c1.5-2.7,1.9-2.9,4.8-1.9C54.8,5.7,56.6,7.1,58,9c0.8,4.2-1.7,7.2-3.9,10.2c-0.8,1.1-1.9,2.1-1.5,3.7
		c0.1,0.3,0.1,0.7,0.5,0.9c1.1,0.8,2.4,1.1,3.7,1.7c1.1,0.3,2.3,0.7,3.4,1c1.6,0.5,3.1,1.3,4.8,1.6c2.3,0.9,4.4,2.1,6.4,3.5
		c2.7,1.9,5.9,2.8,8.9,4.1c3.7,1.6,7.4,3,10.8,5.2c3,1.8,6.5,2.9,10,3.6c5,1,9.6,2.8,14.2,4.7c1.2,0.5,2.4,0.7,3.7,0.7
		c6.5,0,12.9,0,19.4,0c0.7,0,1.5-0.3,2.1,0.3c0.1,0.1,0.3,0.3,0.4,0.4c0.8,1.9-0.3,3.3-1.4,4.6c-2,2.4-4.5,4.4-7.4,5.6
		c-6.2,2.5-12.4,5.5-19.2,6.2c-3.2,0.3-6.4,0.2-9.1-1.9c-2.7-2.1-5.9-3.4-8.6-5.6c-1.9-1.5-3.5-3.2-5.4-4.7
		c-6.4-4.8-13.4-8.8-20.6-12.3c-4.4-2.1-9.1-4-14-5.2c-1.6-0.4-3.1-0.9-4.6-1.7c-1.7-1-3.5-1-5.4-1c-1.1,0-2.1,0.5-2.7,1.4
		c-2,3.6-5.4,5.5-8.8,7.3c-2.4,1.3-4.6,3.1-7.2,4c-4.8,1.6-9.8,1.7-14.7,0.7C9.5,47.3,9,46.3,9.9,44c1.3-1.2,2.9-1.4,4.5-1.7
		c4.1-1,7.5-3.5,10.9-5.8c3.4-2.3,6.1-5.1,7.5-9.1c0.7-2.1,2.3-3.8,4.1-5.2C42.1,18.1,44.8,12.4,47.7,6.7z"/>
	<path class="st2" d="M3.4,65.8c-0.1-2.6,4.8-1.3,5,1.2c0.2,2.3-0.1,4.4,0.1,7.2c0.1,1.8,0,2.3,4.8,2.3c2.9,0,6.6-1,8.1,1.3
		c2.3,3.6-0.2,3.6-2.5,3.6c-3.5,0-8,0-11.6,0c-2.9,0-3.6-0.9-3.7-2.4C3.2,74.3,3.4,67.8,3.4,65.8z"/>
	<path class="st2" d="M25.3,78.6c1.7-2.8,4.9-8,7.3-12.1c1.6-2.8,2-2.9,4-0.2c2.3,3.1,4.5,6.3,6.6,9.6c0.6,0.9,1.5,1.4,2.2,2.3
		c1.1,1.5,0.7,3.1-0.9,3.1c-3.2,0-5.7,0-9.2,0c-1.1,0-1.7-1.1-1.8-2.4c-0.1-1.4,0.9-2.1,2.1-2c0.8,0.1,2.7,0.4,2.2-0.7
		c-0.5-1.1-2.2-3.6-2.9-3.6c-0.6,0-1.4,1.6-1.4,1.6c-1.1,2.1-1.9,3.9-3.2,5.5c-0.9,1.2-2,1.8-3.4,1.7C25.6,81.3,24.4,80.1,25.3,78.6
		z"/>
	<path class="st2" d="M64.1,74.8c0.2-0.6,0-6.1-0.1-7.1c-0.2-1.4,0.7-3.3,2.1-3.3c1.6,0,2.4,1.4,2.4,2.2c0,0.8-0.1,2.3-0.1,3.7
		c0,1.3,0,3.6,0,4.4c0.1,3.7,0.6,4.2-0.6,5.6c-0.5,0.7-2.1,1.3-3.6,0.3l-8.9-7.3c-1.2-0.9-1.5-0.8-1.6-0.3c0,1.3,0,2.6-0.1,4.5
		c0,1.4-0.6,3.6-2.4,3.9c-0.9,0.1-2.5,0-2.5-4c0,0,0.1-7.1,0-9.9c-0.1-1.5,2.1-3.2,3.9-1.8C52.7,65.7,63.8,75.6,64.1,74.8z"/>
	<path class="st2" d="M91,77.6c-1,2.5-3.1,3.5-5.7,3.6c-2.6,0.1-6.1,0.1-8.9,0.1c-4.6,0-4.4,0-4.4-3.7c0-2.4-0.1-6.2-0.1-9.3
		c0-3.9,0-4,4.2-4c2.6,0,5.7,0,8.5,0c2.5,0.1,5.1,1.8,6.1,3.7C92.2,70.8,92.1,75,91,77.6z M76.6,77.6c3.2,0.1,3.2,0,5.3,0
		c4.2,0,5.4-1.7,5.4-4.7c0-2.8-1.4-4.7-5.4-4.7c-1.8,0-1.8,0-5.5,0C76,68.3,76,77.6,76.6,77.6z"/>
</g>
</svg>
