<?xml version="1.0" encoding="utf-8"?>
<!-- Generator: Adobe Illustrator 23.1.0, SVG Export Plug-In . SVG Version: 6.00 Build 0)  -->
<svg version="1.1" id="图层_1" xmlns="http://www.w3.org/2000/svg" xmlns:xlink="http://www.w3.org/1999/xlink" x="0px" y="0px"
	 viewBox="0 0 141.73 141.73" style="enable-background:new 0 0 141.73 141.73;" xml:space="preserve">
<style type="text/css">
	.st0{fill:#E60012;}
	.st1{fill:#E7231C;}
	.st2{fill:#FFFFFF;}
</style>
<g>
	<path class="st0" d="M82.59,86.88c-68.83,0-68.83,0-68.83,0c-7.91,0-7.86-0.69-7.9-2.53c-0.28-11.8,4.05-22.1,12.18-30.7
		c3.54-3.75,7.67-6.68,12.38-8.91c2.67-1.26,5.3-2.22,8.25-2.33c1.14-0.04,2.03,0.37,1.62,1.5c-0.13,0.38-0.13,0.75-0.33,1.09
		c-0.69,1.52-1.91,2.28-3.38,3.13c-3.45,1.99-2.93,2.7-4.95,5.12c-1,1.2-1.35,2.68-2.24,3.92c-0.84,1.18-1.62,2.37-2.39,3.62
		c-1.91,3.09-5.04,5.14-8.73,5.95c-3.24,0.71-5.11,2.84-6.28,5.75c-0.35,0.87-0.31,1.75,0.06,2.62c0.99,2.34,2.96,3.67,5.24,4.21
		c1.59,0.38,2.07,0.34,4.52,0.41c5.45-0.21,8.97-0.29,12.77-2.47c3.99-2.29,7.71-5.09,11.37-7.89c1.78-1.37,3.44-1.34,5.4-0.83
		c8.09,2.1,15.33,6.25,22.97,9.42c3.31,1.37,6.38,3.06,9.5,5.01C90.08,86.88,86.76,86.88,82.59,86.88z"/>
	<path class="st1" d="M86.44,57.86c1.81,2.17,3.24,4.59,4.52,7.09c0.33,0.65,0.89,1.41-0.42,1.68c-1.58,0.98-3.96-1.72-5.33-2.31
		c-2.86-1.24-4.15-1.66-7.08-2.79c-2.66-1.03-5.09-2.47-7.4-4.12c-0.97-0.69-2.09-1.05-3.19-1.46c-1.36-0.5-4.24-2.44-5.33-2.79
		c-4.01-1.28,1.02-5.26,1.22-8.67c0.11-1.9,2.88-1.28,4.17-0.69c3.74,1.71,7.5,3.44,10.75,6.06C81.34,52.25,83.86,55.08,86.44,57.86
		z"/>
	<path class="st2" d="M48.7,38.11c1.4-2.55,1.82-2.67,4.48-1.74c2.14,0.75,3.8,2.08,5.17,3.84c0.79,3.96-1.61,6.7-3.67,9.56
		c-0.75,1.04-1.78,1.93-1.42,3.42c0.1,0.3,0.07,0.67,0.45,0.82c1.03,0.76,2.27,1.06,3.43,1.55c1.06,0.31,2.12,0.62,3.17,0.94
		c1.51,0.43,2.9,1.23,4.48,1.45c2.13,0.85,4.12,1.95,5.98,3.31c2.49,1.82,5.48,2.63,8.27,3.82c3.43,1.46,6.88,2.84,10.1,4.81
		c2.8,1.71,6.07,2.7,9.31,3.32c4.65,0.9,8.99,2.57,13.29,4.43c1.11,0.48,2.21,0.68,3.42,0.68c6.03-0.03,12.06-0.03,18.09,0
		c0.66,0,1.38-0.28,1.99,0.25c0.13,0.13,0.27,0.25,0.4,0.38c0.76,1.77-0.27,3.07-1.26,4.26c-1.88,2.27-4.16,4.07-6.92,5.19
		c-5.83,2.36-11.54,5.09-17.93,5.75c-3.03,0.32-5.94,0.2-8.49-1.76c-2.52-1.95-5.5-3.17-8.01-5.18c-1.73-1.39-3.23-3.03-5.01-4.36
		c-6.01-4.51-12.51-8.23-19.24-11.46c-4.14-1.99-8.49-3.74-13.03-4.81c-1.49-0.35-2.93-0.83-4.26-1.61
		c-1.57-0.91-3.3-0.98-5.04-0.94c-1.02,0.02-2,0.42-2.49,1.29c-1.89,3.32-5.05,5.09-8.22,6.79c-2.26,1.21-4.28,2.86-6.73,3.69
		c-4.51,1.52-9.12,1.6-13.74,0.66c-2.22-0.45-2.64-1.46-1.81-3.61c1.19-1.09,2.7-1.32,4.2-1.56c3.83-0.97,7-3.23,10.19-5.37
		c3.13-2.11,5.67-4.79,6.99-8.5c0.7-1.98,2.11-3.54,3.79-4.85C43.46,48.78,46.02,43.4,48.7,38.11z"/>
	<path class="st2" d="M7.29,91.63c-0.08-2.42,4.52-1.22,4.67,1.09c0.14,2.15-0.05,4.07,0.09,6.58c0.09,1.66,0,2.15,4.53,2.15
		c2.67,0,6.18-0.94,7.6,1.19c2.18,3.26-0.18,3.26-2.38,3.27c-3.29,0.01-7.51-0.01-10.83,0c-2.71,0-3.35-0.87-3.46-2.19
		C7.14,99.44,7.34,93.43,7.29,91.63z"/>
	<path class="st2" d="M25.97,103.4c1.55-2.61,4.59-7.34,6.76-11.11c1.49-2.59,1.87-2.66,3.72-0.18c2.13,2.85,4.15,5.81,6.11,8.79
		c0.57,0.87,1.44,1.33,2.03,2.1c1.05,1.38,0.66,2.81-0.86,2.82c-2.96,0.02-5.29,0.04-8.51,0c-1.05-0.03-1.59-1.04-1.68-2.19
		c-0.09-1.24,0.88-1.92,1.96-1.86c0.78,0.05,2.47,0.34,2.06-0.66c-0.42-1.03-2.06-3.28-2.69-3.31c-0.54-0.02-1.29,1.48-1.29,1.48
		c-1.03,1.92-1.8,3.56-2.93,5.04c-0.83,1.1-1.85,1.65-3.13,1.56C26.2,105.79,25.17,104.76,25.97,103.4z"/>
	<path class="st2" d="M46.99,93.13c-0.05-1.36,1.91-2.9,3.62-1.62c2.71,2.04,3.9,3.4,6.46,5.43c0.62,0.49,4.11,3.68,4.14,2.91
		c0.13-3.16,0.03-5.57-0.09-6.54c-0.16-1.3,0.68-3,1.94-3c1.44,0,2.22,1.3,2.25,2.03c0.03,0.75-0.13,2.07-0.11,3.4
		c0.03,1.2,0,3.28,0.04,4.02c0.07,3.42,0.55,3.86-0.53,5.15c-0.51,0.61-1.96,1.2-3.32,0.31c-1.82-1.2-3.15-2.35-4.86-3.78
		c-0.85-0.82-2.68-2.34-3.44-2.93c-1.09-0.85-1.43-0.76-1.44-0.3c-0.01,1.17-0.03,2.41-0.08,4.14c-0.04,1.26-0.54,3.33-2.24,3.53
		c-0.8,0.1-2.36,0-2.36-3.62C46.99,102.26,47.09,95.73,46.99,93.13z"/>
	<path class="st2" d="M85.38,102.49c-0.93,2.32-3.6,3.27-6.03,3.34c-2.45,0.07-3,0.08-5.68,0.07c-3.33-0.02-5.78,0.09-5.89-2.2
		c-0.11-2.21-0.09-7.9-0.1-10.78c0-1.69,0.44-2.53,3.11-2.57c2.43-0.03,4.82-0.08,7.46-0.01c2.29,0.06,6,1.6,6.92,3.38
		C86.44,96.18,86.36,100.05,85.38,102.49z M72.76,93.88c-1.02,0.07-0.95,1.57-0.92,4.92c0,3.78-0.16,3.58,1.01,3.65
		c1.45,0.08,2.92,0,4.91,0.01c2.92,0.02,4.17-1.81,4.17-4.28c0-2.82-1.95-3.83-3.32-4.08C76.65,93.75,74.7,93.75,72.76,93.88z"/>
</g>
</svg>
